<svg width="16" height="16" viewBox="0 0 16 16" fill="none" xmlns="http://www.w3.org/2000/svg">
<path d="M8.00044 4.51054L7.19017 3.39006C6.94172 3.0465 6.66669 2.76153 6.37228 2.53386L6.37223 2.53382C5.79926 2.09069 5.1677 1.875 4.47009 1.875C3.51029 1.875 2.64146 2.25551 2.00494 2.94583L8.00044 4.51054ZM8.00044 4.51054L8.81078 3.39011M8.00044 4.51054L8.81078 3.39011M8.81078 3.39011C9.05934 3.04642 9.33425 2.76156 9.62857 2.53387L8.81078 3.39011ZM6.20842 12.5491L6.20848 12.5491L6.21141 12.5516C6.7495 13.0102 7.36264 13.5328 8.0005 14.0899C8.63351 13.5369 9.24251 13.0178 9.77773 12.5616L9.79284 12.5488L9.79293 12.5487C11.4272 11.156 12.7426 10.0308 13.6437 8.94347L13.6438 8.94342C14.6164 7.76984 15.0005 6.74939 15.0005 5.68335C15.0005 4.59577 14.6285 3.63201 13.996 2.94592C13.3595 2.25552 12.4907 1.875 11.5309 1.875C10.8333 1.875 10.2018 2.09065 9.6287 2.53377L6.20842 12.5491ZM6.20842 12.5491C4.57391 11.1562 3.25845 10.0308 2.35734 8.94355C1.38461 7.76977 1.00049 6.74932 1.00049 5.68347C1.00049 4.59578 1.37248 3.63202 2.00485 2.94592L6.20842 12.5491Z" stroke="#8291A3" stroke-width="2"/>
</svg>
